<svg width="36" height="40" viewBox="0 0 36 40" fill="none" xmlns="http://www.w3.org/2000/svg">
<path d="M3.42232 36.0014L0.213745 0H35.4823L32.2695 35.9957L17.8266 40L3.42232 36.0014Z" fill="#1572B6"/>
<path d="M17.848 36.9398L29.5195 33.7041L32.2652 2.94409H17.848V36.9398Z" fill="#33A9DC"/>
<path d="M17.848 15.9872H23.6909L24.0937 11.4658H17.848V7.05005H17.8637H28.9195L28.8137 8.23433L27.7295 20.4029H17.848V15.9872Z" fill="white"/>
<path d="M17.8751 27.4542L17.8551 27.4599L12.9379 26.1313L12.6237 22.6099H10.2337H8.1908L8.80937 29.5427L17.8537 32.0541L17.8751 32.0484V27.4542Z" fill="#EBEBEB"/>
<path d="M23.3152 20.2158L22.7838 26.1287L17.8595 27.4572V32.0515L26.9109 29.543L26.9781 28.7973L27.7452 20.2158H23.3152Z" fill="white"/>
<path d="M17.8637 7.05005V9.79291V11.4543V11.4658H7.21225H7.19796L7.10939 10.4729L6.90796 8.23433L6.80225 7.05005H17.8637Z" fill="#EBEBEB"/>
<path d="M17.848 15.9871V18.7299V20.3913V20.4028H13.0066H12.9923L12.9037 19.4099L12.7037 17.1713L12.598 15.9871H17.848Z" fill="#EBEBEB"/>
</svg>
