<svg width="41" height="40" viewBox="0 0 41 40" fill="none" xmlns="http://www.w3.org/2000/svg">
<path d="M0.927979 2C0.927979 0.895431 1.82341 0 2.92798 0H38.928C40.0325 0 40.928 0.895431 40.928 2V38C40.928 39.1046 40.0325 40 38.928 40H2.92798C1.82341 40 0.927979 39.1046 0.927979 38V2Z" fill="#F7DF1E"/>
<path d="M11.4455 33.4271L12.7422 32.6423C13.7077 32.058 14.8214 32.5641 15.7649 33.1834C16.0758 33.3874 16.4484 33.5075 16.9229 33.5075C18.1581 33.5075 18.9368 33.0243 18.9368 31.145V20.2435C18.9368 19.2055 19.7783 18.364 20.8163 18.364V18.364C21.8543 18.364 22.6958 19.2055 22.6958 20.2435V31.1981C22.6958 35.0914 20.4136 36.8636 17.084 36.8636C14.077 36.8636 12.3315 35.3062 11.4454 33.4267" fill="black"/>
<path d="M25.7093 34.462C25.0634 33.7296 25.3983 32.6414 26.2435 32.1521V32.1521C27.1082 31.6514 28.1712 31.9878 28.9315 32.6362C29.5826 33.1915 30.4002 33.5343 31.5036 33.5343C33.0611 33.5343 34.0543 32.7556 34.0543 31.6816C34.0543 30.3927 33.0341 29.9362 31.3156 29.1847L30.3761 28.7816C27.664 27.6273 25.865 26.1774 25.865 23.1164C25.865 20.2971 28.013 18.1489 31.3694 18.1489C33.1944 18.1489 34.6278 18.6344 35.7534 19.8324C36.3826 20.5021 36.1072 21.545 35.3341 22.0415V22.0415C34.4949 22.5804 33.4441 22.1633 32.5645 21.6932C32.218 21.508 31.828 21.4249 31.3695 21.4249C30.2686 21.4249 29.5704 22.123 29.5704 23.0357C29.5704 24.1635 30.2686 24.62 31.8795 25.3182L32.8191 25.7209C36.0144 27.0904 37.8134 28.4864 37.8134 31.6278C37.8134 35.0112 35.1553 36.8637 31.5842 36.8637C28.9165 36.8637 26.9701 35.8914 25.7093 34.462Z" fill="black"/>
</svg>
