<svg width="34" height="40" viewBox="0 0 34 40" fill="none" xmlns="http://www.w3.org/2000/svg">
<path fill-rule="evenodd" clip-rule="evenodd" d="M30.5324 31.7274L12.7203 37.0377C12.5962 37.0753 12.4644 37.0801 12.3379 37.0516C12.2114 37.0231 12.0945 36.9623 11.9985 36.8751C11.9025 36.7879 11.8308 36.6773 11.7903 36.5541C11.7498 36.4309 11.742 36.2993 11.7676 36.1722L18.1321 5.4483C18.159 5.32279 18.2245 5.20888 18.3195 5.12256C18.4145 5.03624 18.5342 4.98185 18.6617 4.96703C18.7892 4.95222 18.9181 4.97772 19.0304 5.03996C19.1426 5.1022 19.2326 5.19805 19.2875 5.31404L31.0695 30.539C31.1223 30.6512 31.1502 30.7735 31.1511 30.8974C31.1521 31.0214 31.1262 31.1441 31.0751 31.2571C31.0241 31.3701 30.9491 31.4706 30.8554 31.5518C30.7617 31.633 30.6515 31.6929 30.5324 31.7274ZM33.5876 30.4733L19.9488 1.26627C19.7812 0.906026 19.5186 0.598269 19.1892 0.376066C18.8597 0.153862 18.476 0.0256116 18.0792 0.00509398C17.6824 -0.0222004 17.2857 0.0605694 16.9329 0.244286C16.5801 0.428002 16.2848 0.705536 16.0796 1.04632L1.2897 25.2115C1.06408 25.5773 0.946749 25.9995 0.951299 26.4293C0.95585 26.859 1.0821 27.2787 1.3154 27.6396L8.54825 38.9359C8.82079 39.3581 9.22276 39.6806 9.69395 39.8552C10.1651 40.0297 10.6802 40.047 11.162 39.9043L32.1578 33.6441C32.4749 33.5517 32.7683 33.3917 33.0176 33.1751C33.2669 32.9585 33.4663 32.6904 33.6021 32.3893C33.7378 32.0882 33.8067 31.7613 33.8039 31.431C33.8012 31.1007 33.7269 30.775 33.5861 30.4762L33.5876 30.4733Z" fill="#0C344B"/>
<path d="M30.5324 31.7274L12.7203 37.0377C12.5962 37.0753 12.4644 37.0801 12.3379 37.0516C12.2114 37.0231 12.0945 36.9623 11.9985 36.8751C11.9025 36.7879 11.8308 36.6773 11.7903 36.5541C11.7498 36.4309 11.742 36.2993 11.7676 36.1722L18.1321 5.4483C18.159 5.32279 18.2245 5.20888 18.3195 5.12256C18.4145 5.03624 18.5342 4.98185 18.6617 4.96703C18.7892 4.95222 18.9181 4.97772 19.0304 5.03996C19.1426 5.1022 19.2326 5.19805 19.2875 5.31404L31.0695 30.539C31.1223 30.6512 31.1502 30.7735 31.1511 30.8974C31.1521 31.0214 31.1262 31.1441 31.0751 31.2571C31.0241 31.3701 30.9491 31.4706 30.8554 31.5518C30.7617 31.633 30.6515 31.6929 30.5324 31.7274Z" fill="white"/>
</svg>
