<svg width="35" height="40" viewBox="0 0 35 40" fill="none" xmlns="http://www.w3.org/2000/svg">
<path d="M17.8793 23.885C17.1915 24.201 16.4379 24.6129 14.9293 25.4408C14.3573 25.7625 13.7596 26.0843 13.2033 26.3874C13.1647 26.3488 13.1247 26.3002 13.0861 26.2602C10.1017 23.0713 4.58201 20.8191 4.81652 16.5364C4.90375 14.9763 5.43999 10.8808 15.4169 5.90736C23.6278 1.86054 30.1614 2.98164 31.2896 5.46836C32.9112 9.01327 27.7876 15.6097 19.3079 16.5664C18.3694 16.7567 17.4001 16.7338 16.4717 16.4991C15.5432 16.2645 14.6794 15.8242 13.944 15.2108C13.495 14.7232 13.4278 14.6946 13.2619 14.7918C12.9888 14.9348 13.1647 15.3766 13.2619 15.6298C13.5854 16.2154 14.023 16.7302 14.5489 17.1439C15.0747 17.5575 15.6782 17.8614 16.3235 18.0378C19.6605 18.7591 23.1398 18.4145 26.2704 17.0526C31.4097 15.0635 35.4223 9.53378 34.2468 4.8978C33.0671 0.197478 25.2651 -1.35261 17.8836 1.26996C13.2609 2.82776 8.98994 5.28005 5.31415 8.48704C1.24731 12.2908 0.603819 15.5969 0.866935 16.9811C1.81358 21.8959 8.58879 25.0947 11.3057 27.4642C11.1627 27.5429 11.0426 27.6072 10.9354 27.6687C9.57976 28.3422 4.41184 31.0434 3.12343 33.9005C1.66057 37.138 3.35795 39.4588 4.47905 39.7706C6.16854 40.1753 7.94225 40.0422 9.55247 39.39C11.1627 38.7378 12.529 37.5991 13.4607 36.1327C14.2519 34.9168 14.7377 33.5277 14.8769 32.0838C15.016 30.6398 14.8044 29.1835 14.2601 27.8389C14.5813 27.5827 14.9238 27.3545 15.2839 27.1568C15.976 26.7478 16.6353 26.3445 17.2201 26.0328C19.2226 25.0948 21.408 24.6119 23.6192 24.6186C28.2609 25.1648 29.1776 28.0605 29.0017 29.2803C28.9194 29.713 28.7454 30.1232 28.4913 30.483C28.2372 30.8429 27.909 31.1442 27.5288 31.3666C27.2071 31.5711 27.0998 31.6397 27.1284 31.7856C27.167 32.0001 27.3229 31.9901 27.596 31.9515C28.2934 31.7311 28.9078 31.3049 29.3585 30.7288C29.8092 30.1528 30.0751 29.454 30.1213 28.724C30.2643 25.8641 27.5374 22.7267 22.7098 22.7553C21.2643 22.7578 19.8332 23.0429 18.4971 23.5947C18.2826 23.6834 18.0743 23.7787 17.8722 23.8807L17.8793 23.885ZM10.9797 35.0946C9.4382 36.7719 7.29324 37.4054 6.36661 36.8692C5.36563 36.2972 5.76174 33.8162 7.65359 32.0416C8.77406 31.032 9.98512 30.1278 11.2714 29.3403C11.4959 29.1973 11.8277 29.0086 12.2266 28.7684C12.2953 28.7297 12.3339 28.7097 12.3339 28.7097L12.5684 28.5667C12.9058 29.698 12.9365 30.8986 12.6574 32.0456C12.3782 33.1926 11.7992 34.2449 10.9797 35.0946Z" fill="#CD6799"/>
</svg>
