<svg width="59" height="35" viewBox="0 0 59 35" fill="none" xmlns="http://www.w3.org/2000/svg">
<path d="M29.649 0C21.8712 0 17.0101 3.88889 15.0656 11.6667C17.9823 7.77778 21.3851 6.31944 25.274 7.29167C27.4928 7.84637 29.0787 9.45605 30.8341 11.2379C33.6937 14.1405 37.0034 17.5 44.2323 17.5C52.0101 17.5 56.8712 13.6111 58.8156 5.83333C55.899 9.72222 52.4962 11.1806 48.6073 10.2083C46.3885 9.65363 44.8026 8.04395 43.0472 6.26208C40.1875 3.35946 36.8779 0 29.649 0ZM15.0656 17.5C7.28785 17.5 2.42674 21.3889 0.4823 29.1667C3.39897 25.2778 6.80174 23.8194 10.6906 24.7917C12.9095 25.3464 14.4954 26.956 16.2508 28.7379C19.1104 31.6405 22.4201 35 29.649 35C37.4267 35 42.2879 31.1111 44.2323 23.3333C41.3156 27.2222 37.9129 28.6806 34.024 27.7083C31.8051 27.1536 30.2192 25.544 28.4638 23.7621C25.6042 20.8595 22.2945 17.5 15.0656 17.5Z" fill="url(#paint0_linear_78_224)"/>
<defs>
<linearGradient id="paint0_linear_78_224" x1="-161.555" y1="1120" x2="4876.48" y2="4024.82" gradientUnits="userSpaceOnUse">
<stop stop-color="#2298BD"/>
<stop offset="1" stop-color="#0ED7B5"/>
</linearGradient>
</defs>
</svg>
