<svg width="61" height="40" viewBox="0 0 61 40" fill="none" xmlns="http://www.w3.org/2000/svg">
<rect x="0.576172" width="59.5122" height="40" rx="5" fill="url(#paint0_linear_85_37)"/>
<path d="M11.883 13.4545H13.6444V23.0852C13.6444 24.0795 13.41 24.9673 12.9412 25.7486C12.4772 26.5251 11.8214 27.1383 10.9739 27.5881C10.1264 28.0331 9.13204 28.2557 7.99094 28.2557C6.84985 28.2557 5.85553 28.0331 5.00799 27.5881C4.16045 27.1383 3.50231 26.5251 3.03356 25.7486C2.56954 24.9673 2.33754 24.0795 2.33754 23.0852V13.4545H4.0989V22.9432C4.0989 23.6534 4.25515 24.2855 4.56765 24.8395C4.88015 25.3887 5.32523 25.822 5.90288 26.1392C6.48526 26.4517 7.18129 26.608 7.99094 26.608C8.8006 26.608 9.49663 26.4517 10.079 26.1392C10.6614 25.822 11.1065 25.3887 11.4142 24.8395C11.7267 24.2855 11.883 23.6534 11.883 22.9432V13.4545ZM18.1231 13.4545V28H16.3618V13.4545H18.1231Z" fill="white"/>
<path d="M30.2523 12.7727L25.5648 30.1875H24.0307L28.7182 12.7727H30.2523Z" fill="white"/>
<path d="M45.883 13.4545H47.6444V23.0852C47.6444 24.0795 47.41 24.9673 46.9412 25.7486C46.4772 26.5251 45.8214 27.1383 44.9739 27.5881C44.1264 28.0331 43.132 28.2557 41.9909 28.2557C40.8498 28.2557 39.8555 28.0331 39.008 27.5881C38.1605 27.1383 37.5023 26.5251 37.0336 25.7486C36.5695 24.9673 36.3375 24.0795 36.3375 23.0852V13.4545H38.0989V22.9432C38.0989 23.6534 38.2551 24.2855 38.5676 24.8395C38.8801 25.3887 39.3252 25.822 39.9029 26.1392C40.4853 26.4517 41.1813 26.608 41.9909 26.608C42.8006 26.608 43.4966 26.4517 44.079 26.1392C44.6614 25.822 45.1065 25.3887 45.4142 24.8395C45.7267 24.2855 45.883 23.6534 45.883 22.9432V13.4545ZM51.214 13.4545L54.964 19.5057H55.0777L58.8277 13.4545H60.9015L56.3277 20.7273L60.9015 28H58.8277L55.0777 22.0625H54.964L51.214 28H49.1402L53.8277 20.7273L49.1402 13.4545H51.214Z" fill="white"/>
<defs>
<linearGradient id="paint0_linear_85_37" x1="-18.4482" y1="-20.4878" x2="75.4416" y2="50.9726" gradientUnits="userSpaceOnUse">
<stop stop-color="#FFA415"/>
<stop offset="1" stop-color="#FF2965"/>
</linearGradient>
</defs>
</svg>
