<svg width="34" height="37" viewBox="0 0 34 37" fill="none" xmlns="http://www.w3.org/2000/svg">
<path id="Vector" d="M23.6776 36C23.6849 34.8958 23.6919 31.0636 23.6919 29.5463C23.6919 27.3536 22.9259 25.9188 22.0667 25.1926C27.4004 24.6099 33 22.6236 33 13.5889C33 11.0218 32.075 8.9218 30.5389 7.27869C30.7848 6.68369 31.6063 4.29186 30.3001 1.05436C30.3001 1.05436 28.2935 0.422467 23.7204 3.46747C21.8067 2.94412 19.7606 2.68517 17.7256 2.67477C15.6905 2.68517 13.6446 2.94436 11.7306 3.46747C7.15759 0.422467 5.15118 1.05436 5.15118 1.05436C3.84501 4.29186 4.66644 6.68369 4.91244 7.27869C3.37625 8.9218 2.45129 11.0218 2.45129 13.5889C2.45129 22.6236 8.05061 24.6099 13.3843 25.1926C12.5254 25.9188 11.7591 27.3536 11.7591 29.5463C11.7591 31.0636 11.7664 34.8958 11.7734 36M1 26.5405C3.40406 26.7068 4.79029 28.8427 4.79029 28.8427C6.92707 32.4371 10.3966 31.3975 11.7601 30.7973" stroke="white" stroke-width="1.75" stroke-linecap="round" stroke-linejoin="round"/>
</svg>
