<svg width="43" height="40" viewBox="0 0 43 40" fill="none" xmlns="http://www.w3.org/2000/svg">
<path fill-rule="evenodd" clip-rule="evenodd" d="M21.3525 0C33.1455 0 42.705 9.17985 42.705 20.5058C42.705 29.5638 36.5939 37.2479 28.1149 39.9619C27.0323 40.1639 26.6479 39.5235 26.6479 38.9775C26.6479 38.3015 26.6736 36.0936 26.6736 33.3496C26.6736 31.4376 25.9903 30.1897 25.2237 29.5537C29.9789 29.0457 34.9754 27.3115 34.9754 19.4355C34.9754 17.1955 34.1469 15.3676 32.7761 13.9316C32.9982 13.4136 33.7306 11.3279 32.5669 8.5039C32.5669 8.5039 30.7775 7.95444 26.7013 10.6064C24.9953 10.1524 23.1675 9.924 21.3525 9.916C19.5376 9.924 17.7119 10.1524 16.008 10.6064C11.9275 7.95444 10.1339 8.5039 10.1339 8.5039C8.97447 11.3279 9.70686 13.4136 9.92679 13.9316C8.56236 15.3676 7.72748 17.1955 7.72748 19.4355C7.72748 27.2915 12.7133 29.0523 17.4557 29.5703C16.845 30.0823 16.292 30.9855 16.0998 32.3115C14.8827 32.8355 11.7909 33.7424 9.88621 30.6084C9.88621 30.6084 8.75667 28.6381 6.61287 28.4941C6.61287 28.4941 4.531 28.4682 6.46768 29.7402C6.46768 29.7402 7.86627 30.3702 8.83781 32.7402C8.83781 32.7402 10.0912 36.4001 16.0315 35.1601C16.0422 36.8741 16.0614 38.4895 16.0614 38.9775C16.0614 39.5195 15.6685 40.1538 14.603 39.9638C6.11749 37.2538 0 29.5658 0 20.5058C0 9.17985 9.56166 0 21.3525 0Z" fill="#5175FF"/>
</svg>
