<svg width="33" height="30" viewBox="0 0 33 30" fill="none" xmlns="http://www.w3.org/2000/svg">
<g id="hand-waving-duotone_svgrepo.com">
<path id="Vector" opacity="0.8" d="M23.7781 25.4614C22.6398 26.077 21.3832 26.4765 20.08 26.6372C18.7769 26.7979 17.4527 26.7166 16.1831 26.398C14.9135 26.0793 13.7233 25.5296 12.6805 24.7801C11.6378 24.0306 10.7628 23.0961 10.1056 22.0299L4.85087 13.505C4.51905 12.9667 4.42913 12.3269 4.60089 11.7265C4.77266 11.1261 5.19203 10.6142 5.76676 10.3034C6.34149 9.99255 7.02449 9.90833 7.66552 10.0692C8.30654 10.2301 8.85308 10.6229 9.1849 11.1612L7.1831 7.91363C7.01865 7.64708 6.91187 7.35279 6.86888 7.04757C6.82588 6.74236 6.8475 6.4322 6.9325 6.13481C7.01751 5.83743 7.16423 5.55864 7.36429 5.31438C7.56435 5.07012 7.81383 4.86517 8.09847 4.71124C8.38312 4.5573 8.69735 4.45741 9.02322 4.41725C9.34909 4.3771 9.68022 4.39747 9.99768 4.47721C10.3151 4.55694 10.6127 4.69448 10.8734 4.88197C11.1341 5.06945 11.3528 5.30321 11.5171 5.56988L12.518 7.19368C12.1862 6.65535 12.0962 6.01561 12.268 5.41519C12.4398 4.81477 12.8591 4.30285 13.4339 3.99205C14.0086 3.68125 14.6916 3.59702 15.3326 3.75791C15.9737 3.91879 16.5202 4.3116 16.852 4.84993L20.6054 10.9392C20.2736 10.4008 20.1836 9.76111 20.3554 9.16068C20.5272 8.56026 20.9465 8.04834 21.5213 7.73754C22.096 7.42674 22.779 7.34252 23.42 7.5034C24.0611 7.66429 24.6076 8.0571 24.9394 8.59542L27.4417 12.6549C28.0989 13.7211 28.5254 14.8981 28.697 16.1187C28.8685 17.3393 28.7817 18.5797 28.4416 19.7688C28.1014 20.958 27.5144 22.0728 26.7143 23.0496C25.9141 24.0263 24.9164 24.8458 23.7781 25.4614Z" fill="#FFFF00"/>
<path id="Vector_2" d="M28.7553 12.4908L26.2531 8.43137C25.9572 7.95237 25.5369 7.55117 25.0312 7.26501C24.5255 6.97886 23.9508 6.81703 23.3605 6.79456C22.7701 6.77208 22.1833 6.88969 21.6545 7.13646C21.1256 7.38323 20.6719 7.75116 20.3355 8.20608L18.1657 4.68577C17.8623 4.19325 17.4274 3.78307 16.9037 3.49544C16.38 3.20782 15.7855 3.05264 15.1785 3.04514C14.5715 3.03763 13.9728 3.17804 13.4412 3.45261C12.9096 3.72717 12.4633 4.12646 12.1461 4.6113C11.5267 4.08717 10.7279 3.78738 9.89356 3.76592C9.05917 3.74446 8.24401 4.00273 7.59488 4.49423C6.94574 4.98574 6.50528 5.67817 6.35281 6.44685C6.20034 7.21552 6.34587 8.00993 6.76321 8.68703L7.18278 9.36775C6.59363 9.41208 6.02605 9.59535 5.5329 9.90049C5.03975 10.2056 4.63707 10.6227 4.36238 11.1129C4.08769 11.6031 3.94992 12.1504 3.9619 12.7039C3.97388 13.2574 4.13523 13.799 4.43091 14.2784L9.68564 22.8033C10.4086 23.9761 11.371 25.0041 12.5181 25.8285C13.6651 26.6529 14.9743 27.2576 16.3709 27.6082C17.7675 27.9587 19.2241 28.0481 20.6575 27.8713C22.091 27.6945 23.4733 27.255 24.7254 26.5779C25.9775 25.9008 27.075 24.9993 27.9552 23.9249C28.8353 22.8505 29.481 21.6242 29.8552 20.3161C30.2294 19.008 30.3248 17.6437 30.1361 16.301C29.9474 14.9583 29.4782 13.6636 28.7553 12.4908ZM27.9216 19.8309C27.4605 21.4428 26.4994 22.8904 25.1599 23.9907C23.8204 25.091 22.1626 25.7946 20.3963 26.0124C18.6299 26.2302 16.8342 25.9525 15.2363 25.2144C13.6384 24.4763 12.3101 23.311 11.4192 21.8658L6.16453 13.3409C5.96579 13.018 5.9121 12.6343 6.01524 12.2743C6.11838 11.9142 6.36992 11.6073 6.71458 11.4209C7.05924 11.2345 7.4688 11.1839 7.85326 11.2802C8.23773 11.3766 8.56562 11.612 8.76489 11.9346L11.5174 16.4001C11.5383 16.4336 11.5614 16.4658 11.5866 16.4966C11.5935 16.5051 11.6007 16.5132 11.6079 16.5215C11.6272 16.5438 11.6474 16.5651 11.6685 16.5854C11.6763 16.5929 11.6839 16.6006 11.692 16.6078C11.7203 16.6336 11.7502 16.6577 11.7816 16.6801C11.7832 16.6813 11.7851 16.6823 11.7868 16.6835C11.8166 16.704 11.8476 16.723 11.8797 16.7404C11.8895 16.7457 11.8995 16.7507 11.9096 16.7557C11.9355 16.7688 11.9619 16.7807 11.9889 16.7916C11.9986 16.7955 12.008 16.7996 12.0177 16.8032C12.0539 16.8167 12.0908 16.8282 12.1283 16.8376C12.1311 16.8383 12.134 16.8387 12.1368 16.8394C12.1717 16.8476 12.207 16.8541 12.2427 16.8588C12.2534 16.8602 12.2642 16.8613 12.2751 16.8624C12.3051 16.8655 12.3352 16.8673 12.3655 16.8678C12.3721 16.868 12.3786 16.869 12.3852 16.869C12.3884 16.869 12.3916 16.8685 12.3948 16.8685C12.4337 16.8683 12.4726 16.8659 12.5112 16.8615C12.5142 16.8611 12.5172 16.8604 12.5203 16.86C12.5558 16.8553 12.5911 16.8489 12.6258 16.8406C12.637 16.838 12.6481 16.8349 12.6592 16.8319C12.6873 16.8244 12.7152 16.8156 12.7428 16.8056C12.7537 16.8016 12.7646 16.798 12.7753 16.7937C12.9062 16.7424 13.0239 16.6655 13.1205 16.5682C13.2171 16.4708 13.2904 16.3552 13.3354 16.2292C13.3805 16.1032 13.3962 15.9696 13.3817 15.8374C13.3671 15.7051 13.3225 15.5774 13.251 15.4626L10.4985 10.9971L10.4981 10.9965L8.4967 7.74947C8.29802 7.42649 8.24436 7.04283 8.34754 6.68282C8.45071 6.3228 8.70227 6.01588 9.04693 5.82951C9.39158 5.64314 9.80114 5.59257 10.1856 5.6889C10.57 5.78524 10.8979 6.02061 11.0972 6.34328L12.096 7.96377L12.098 7.96708L15.3509 13.2445C15.4166 13.3511 15.5041 13.4445 15.6084 13.5195C15.7127 13.5944 15.8317 13.6494 15.9586 13.6813C16.0856 13.7131 16.218 13.7213 16.3483 13.7052C16.4786 13.6891 16.6043 13.6492 16.7181 13.5876C16.832 13.5261 16.9317 13.4441 17.0118 13.3464C17.0918 13.2488 17.1505 13.1373 17.1845 13.0184C17.2185 12.8994 17.2272 12.7754 17.21 12.6533C17.1929 12.5313 17.1502 12.4136 17.0845 12.307L13.8317 7.02958C13.7331 6.86964 13.6691 6.69309 13.6434 6.50999C13.6177 6.3269 13.6307 6.14085 13.6817 5.96247C13.7328 5.78409 13.8208 5.61687 13.9408 5.47035C14.0609 5.32384 14.2105 5.20091 14.3813 5.10857C14.552 5.01624 14.7405 4.95631 14.936 4.93221C15.1315 4.9081 15.3301 4.9203 15.5205 4.9681C15.711 5.0159 15.8895 5.09836 16.0459 5.21079C16.2024 5.32321 16.3336 5.46339 16.4322 5.62333L20.1852 11.7121L20.1856 11.7126L20.9774 12.9974C19.8841 13.8451 19.1465 15.028 18.8953 16.3363C18.6441 17.6447 18.8954 18.9942 19.6048 20.1456C19.6705 20.2522 19.758 20.3456 19.8623 20.4206C19.9666 20.4955 20.0856 20.5505 20.2126 20.5824C20.3395 20.6142 20.4719 20.6223 20.6022 20.6063C20.7325 20.5902 20.8582 20.5502 20.972 20.4887C21.0858 20.4271 21.1856 20.3452 21.2656 20.2475C21.3456 20.1498 21.4043 20.0384 21.4383 19.9194C21.4723 19.8005 21.481 19.6765 21.4639 19.5545C21.4467 19.4324 21.404 19.3147 21.3383 19.2081C20.8074 18.3468 20.6636 17.3232 20.9384 16.3625C21.2133 15.4018 21.8843 14.5828 22.8039 14.0855C22.8327 14.0699 22.8607 14.0529 22.8877 14.0347C22.9102 14.0196 22.9314 14.0032 22.9522 13.9867C22.9562 13.9835 22.9605 13.9807 22.9644 13.9775C22.9883 13.9579 23.0108 13.9372 23.0324 13.9158L23.0344 13.9139C23.056 13.8923 23.0763 13.8699 23.0954 13.8466L23.0976 13.8441C23.1157 13.822 23.1324 13.7991 23.1482 13.7757C23.1498 13.7733 23.1517 13.771 23.1534 13.7685C23.1676 13.7471 23.1803 13.725 23.1926 13.7026C23.1953 13.6977 23.1985 13.693 23.2012 13.6879C23.2121 13.667 23.2216 13.6455 23.2309 13.6239C23.2338 13.617 23.2374 13.6105 23.2402 13.6035C23.2503 13.5783 23.2589 13.5526 23.2666 13.5267C23.2677 13.5232 23.2692 13.5198 23.2702 13.5163C23.2712 13.5128 23.2717 13.5092 23.2727 13.5058C23.2798 13.4796 23.2861 13.4534 23.2908 13.4267C23.2923 13.4186 23.2927 13.4103 23.2939 13.4022C23.2972 13.38 23.3005 13.3578 23.3021 13.3354C23.3026 13.3286 23.3022 13.3218 23.3025 13.315C23.3037 13.2912 23.3046 13.2673 23.3038 13.2434C23.3036 13.2389 23.3029 13.2343 23.3027 13.2298C23.3014 13.2038 23.2994 13.1778 23.2958 13.1518C23.2954 13.1489 23.2946 13.146 23.2942 13.1431C23.2901 13.1159 23.2851 13.0888 23.2784 13.0618C23.2776 13.0585 23.2763 13.0553 23.2755 13.0521C23.2687 13.0259 23.2611 12.9997 23.2517 12.9738C23.249 12.9662 23.2453 12.9588 23.2423 12.9513C23.234 12.9301 23.2258 12.909 23.2158 12.8883C23.2021 12.8598 23.1869 12.8319 23.1702 12.8048L21.919 10.7751C21.7204 10.4521 21.6667 10.0684 21.7699 9.7084C21.8731 9.34838 22.1246 9.04147 22.4693 8.85509C22.8139 8.66872 23.2235 8.61815 23.6079 8.71449C23.9924 8.81082 24.3203 9.04619 24.5195 9.36886L27.0218 13.4283C27.6163 14.3868 28.0019 15.4462 28.1564 16.5452C28.3108 17.6442 28.231 18.761 27.9216 19.8309ZM12.1735 28.9642C12.0986 29.0654 12.0032 29.1518 11.8926 29.2184C11.7821 29.2851 11.6586 29.3307 11.5293 29.3526C11.3999 29.3745 11.2673 29.3724 11.1388 29.3463C11.0103 29.3202 10.8886 29.2706 10.7806 29.2004C8.96115 28.0209 7.44542 26.4761 6.34377 24.6786C6.21104 24.4633 6.17507 24.2074 6.24376 23.9672C6.31246 23.7271 6.48019 23.5223 6.71007 23.398C6.93994 23.2737 7.21313 23.24 7.46953 23.3043C7.72592 23.3687 7.94453 23.5258 8.07726 23.7411C9.03169 25.2987 10.3449 26.6373 11.9213 27.6596C12.1394 27.8013 12.2886 28.0183 12.3358 28.263C12.3831 28.5077 12.3247 28.7599 12.1735 28.9642ZM22.224 3.93664C22.2242 3.68815 22.3298 3.44992 22.5175 3.27429C22.7052 3.09866 22.9596 3 23.2249 3H23.2259C24.5428 3.00286 25.8359 3.32903 26.9762 3.94598C28.1166 4.56293 29.0643 5.4491 29.725 6.51614C29.7908 6.62277 29.8335 6.7405 29.8507 6.8626C29.868 6.98471 29.8593 7.10879 29.8253 7.22776C29.7913 7.34674 29.7326 7.45827 29.6526 7.55599C29.5725 7.65371 29.4727 7.7357 29.3589 7.79728C29.245 7.85886 29.1193 7.89881 28.9889 7.91487C28.8585 7.93093 28.726 7.92276 28.599 7.89085C28.472 7.85894 28.353 7.8039 28.2487 7.72888C28.1444 7.65387 28.057 7.56034 27.9913 7.45364C27.5066 6.67101 26.8114 6.02106 25.9749 5.5686C25.1384 5.11615 24.1899 4.877 23.2239 4.875C22.9585 4.87476 22.704 4.77576 22.5165 4.59979C22.329 4.42381 22.2238 4.18527 22.224 3.93664Z" fill="black"/>
</g>
</svg>
