<svg width="43" height="40" viewBox="0 0 43 40" fill="none" xmlns="http://www.w3.org/2000/svg">
<path d="M39.2877 0.00358728H3.65653C3.19728 -0.0165609 2.73826 0.0483088 2.30581 0.19452C1.87335 0.340732 1.47593 0.565385 1.13628 0.855609C0.796645 1.14586 0.521444 1.496 0.326473 1.88596C0.131502 2.27595 0.0205513 2.69812 0 3.1283V36.5753C0.0269036 37.4755 0.420795 38.3322 1.10078 38.9688C1.78076 39.6058 2.69527 39.9748 3.65653 40H39.2877C40.2221 39.961 41.1032 39.5805 41.7419 38.9403C42.3806 38.3002 42.7259 37.4512 42.7041 36.5753V3.1283C42.7118 2.70959 42.628 2.29385 42.458 1.90654C42.288 1.51925 42.0352 1.16856 41.7152 0.875957C41.3954 0.583384 41.0151 0.355106 40.5977 0.205095C40.1802 0.0550832 39.7345 -0.0134862 39.2877 0.00358728ZM13.345 33.3506H7.12624V15.5272H13.345V33.3506ZM10.3824 12.8274C9.94847 12.8416 9.51606 12.7715 9.1124 12.6217C8.70872 12.4719 8.34248 12.2455 8.03672 11.9567C7.73093 11.668 7.49219 11.3231 7.33552 10.9438C7.17882 10.5645 7.10758 10.159 7.12624 9.75269C7.10705 9.34198 7.17973 8.93207 7.33963 8.54923C7.49953 8.16636 7.7431 7.81905 8.0547 7.52955C8.36634 7.24003 8.73912 7.01472 9.14916 6.86808C9.55922 6.72142 9.99747 6.65668 10.4358 6.67798C10.8698 6.66383 11.3022 6.73385 11.7058 6.88368C12.1095 7.03352 12.4757 7.25992 12.7815 7.54867C13.0873 7.83742 13.326 8.18226 13.4827 8.56155C13.6394 8.94084 13.7106 9.34638 13.692 9.75269C13.7112 10.1634 13.6385 10.5733 13.4786 10.9562C13.3187 11.339 13.0751 11.6863 12.7635 11.9758C12.4519 12.2654 12.0791 12.4907 11.6691 12.6373C11.259 12.784 10.8208 12.8487 10.3824 12.8274ZM35.6045 33.3506H29.359V23.6015C29.359 21.2767 28.4783 19.6769 26.263 19.6769C25.5749 19.6824 24.9053 19.8871 24.3464 20.2631C23.7872 20.639 23.3661 21.1677 23.1403 21.7767C22.9668 22.2331 22.8942 22.7178 22.9267 23.2015V33.3506H16.788V15.5272H22.9267V18.027C23.4725 17.0878 24.2847 16.3084 25.2739 15.7745C26.263 15.2408 27.3904 14.9735 28.5316 15.0022C32.5618 15.0022 35.6045 17.5021 35.6045 22.8266V33.3506Z" fill="#5175FF"/>
</svg>
