<svg width="35" height="40" viewBox="0 0 35 40" fill="none" xmlns="http://www.w3.org/2000/svg">
<path d="M27.5837 0H13.3947H12.2957L11.5188 0.727655L0.776946 10.7892L0 11.5169V12.5462V33.2894C0 36.9895 3.21355 40 7.16442 40H27.5837C31.5339 40 34.7475 36.9895 34.7475 33.2894V6.71053C34.7475 3.00999 31.5339 0 27.5837 0ZM32.0948 33.2893C32.0948 35.6234 30.0751 37.5152 27.5837 37.5152H7.16442C4.67244 37.5152 2.6528 35.6234 2.6528 33.2893V12.5461H9.63547C11.711 12.5461 13.3947 10.9697 13.3947 9.02506V2.48468H27.5837C30.0751 2.48468 32.0948 4.3764 32.0948 6.71053V33.2893Z" fill="#5175FF"/>
<path d="M26.617 7.27887H19.1626V14.2611H26.617V7.27887Z" fill="#5175FF"/>
<path d="M26.6168 18.1712H8.12988V20.1262H26.6168V18.1712Z" fill="#5175FF"/>
<path d="M26.6168 23.757H8.12988V25.712H26.6168V23.757Z" fill="#5175FF"/>
<path d="M26.6168 29.3428H8.12988V31.2978H26.6168V29.3428Z" fill="#5175FF"/>
</svg>
