<svg width="44" height="34" viewBox="0 0 44 34" fill="none" xmlns="http://www.w3.org/2000/svg">
<path fill-rule="evenodd" clip-rule="evenodd" d="M38.8382 16.9473V4.50593C38.8382 3.58538 38.4617 2.73963 37.8506 2.13623L25.3346 14.6537L22.8901 17.0981C22.0192 17.9683 20.8808 18.4132 19.7333 18.4132C18.5948 18.4132 17.4565 17.9683 16.5773 17.0981L14.1405 14.6537L8.91644 19.8443L1.62439 27.1028C2.22646 27.7061 3.07231 28.0825 3.99409 28.0825H25.6517C25.4351 27.2872 25.3189 26.4413 25.3189 25.5633C25.3189 22.9423 26.3814 20.5649 28.1063 18.8477C29.821 17.124 32.2011 16.0603 34.8207 16.0603C36.2597 16.0603 37.6159 16.3788 38.8382 16.9473Z" fill="white"/>
<path fill-rule="evenodd" clip-rule="evenodd" d="M8.91645 19.8443L14.1405 14.6537L1.61536 2.13623C1.01329 2.73963 0.636841 3.58538 0.636841 4.50593V24.7254C0.636841 25.655 1.01329 26.4917 1.61536 27.1029L8.91645 19.8443Z" fill="white"/>
<path d="M2.06795 2.58864C1.81657 2.84001 1.61538 3.14167 1.47358 3.46794C1.34851 3.78632 1.27248 4.13834 1.27248 4.50576V24.7252C1.27248 25.1017 1.34851 25.4537 1.47358 25.763C1.53165 25.8972 1.59865 26.0312 1.67468 26.1486L13.6893 14.2011L14.5841 15.106L1.61538 27.9985L1.17193 27.5551C0.803174 27.1863 0.502756 26.7429 0.301654 26.2569C0.108249 25.7798 0 25.2692 0 24.7252V4.50576C0 3.97069 0.108249 3.45111 0.301654 2.98181C0.502756 2.48799 0.803174 2.05357 1.17193 1.68481L2.06795 2.58864Z" fill="#26293A"/>
<path fill-rule="evenodd" clip-rule="evenodd" d="M34.8209 18.02C30.6514 18.02 27.2761 21.4018 27.2761 25.5634C27.2761 29.7329 30.6514 33.1069 34.8209 33.1069C38.9904 33.1069 42.363 29.7329 42.363 25.5634C42.3631 21.4018 38.9904 18.02 34.8209 18.02Z" fill="white"/>
<path d="M34.8614 18.4004C32.9531 18.4004 31.2279 19.1791 29.9798 20.4271C28.7317 21.6737 27.953 23.3989 27.953 25.3081C27.953 27.2162 28.7317 28.9491 29.9798 30.197C31.228 31.445 32.9531 32.2146 34.8614 32.2146C36.7697 32.2146 38.4949 31.4449 39.7507 30.197C40.9989 28.949 41.7699 27.2162 41.7699 25.3081C41.7699 23.3988 40.9989 21.6737 39.7507 20.4271C38.4949 19.1792 36.7697 18.4004 34.8614 18.4004ZM29.0746 19.5221C30.5575 18.0484 32.5997 17.1279 34.8614 17.1279C37.123 17.1279 39.1653 18.0485 40.6483 19.5221C42.1285 21.0048 43.0414 23.047 43.0414 25.3082C43.0414 27.5682 42.1285 29.6105 40.6483 31.0931C39.1653 32.5745 37.123 33.4873 34.8614 33.4873C32.5997 33.4873 30.5575 32.5745 29.0746 31.0931C27.6021 29.6104 26.6814 27.5682 26.6814 25.3082C26.6815 23.047 27.6021 21.0048 29.0746 19.5221Z" fill="#26293A"/>
<path fill-rule="evenodd" clip-rule="evenodd" d="M14.1405 14.6535L16.5773 17.0979C17.4566 17.9681 18.5949 18.4129 19.7333 18.4129C20.8808 18.4129 22.0192 17.9681 22.8901 17.0979L25.3346 14.6535L37.8506 2.13599C37.2498 1.53392 36.3937 1.14844 35.481 1.14844H3.99409C3.07231 1.14844 2.22646 1.53392 1.62439 2.13599L14.1405 14.6535Z" fill="white"/>
<path d="M25.853 28.7193H3.99418C3.45787 28.7193 2.9383 28.6097 2.47023 28.4177C1.9842 28.2165 1.54075 27.9148 1.172 27.5473L2.06802 26.6514C2.3194 26.9027 2.62115 27.1026 2.95502 27.2456C3.2735 27.3707 3.62543 27.4467 3.99418 27.4467H25.5022C25.595 27.8813 25.7112 28.3092 25.853 28.7193Z" fill="#26293A"/>
<path d="M25.7781 14.21L29.3441 17.8019L29.3286 17.8096L29.3209 17.8186L29.3106 17.8264L29.2951 17.8355L29.2771 17.8432L29.2617 17.86L29.2438 17.8691L29.2282 17.8858L29.2102 17.8935L29.1947 17.9026L29.1768 17.9194L29.1612 17.9271L29.1432 17.9439L29.1355 17.9516L29.12 17.9607L29.1021 17.9774L29.0866 17.9866L29.0686 18.0033L29.0531 18.0111L29.0429 18.0201L29.0352 18.0278L29.0197 18.0354L29.0016 18.0523L28.9939 18.0615L28.9114 18.1193L28.8935 18.1362L28.878 18.1453L28.8677 18.162L28.8522 18.1697L28.8342 18.1864L28.8188 18.1956L28.8008 18.2124L28.7852 18.2201L28.7775 18.2291V18.2368L28.7595 18.2459L28.7441 18.2627L28.7261 18.2703L28.7106 18.2872L28.6513 18.3375L28.6332 18.3542L28.6178 18.3633L28.6101 18.38H28.5999L28.5921 18.3878L28.5767 18.4045L28.5586 18.4215L28.5431 18.4305L28.5329 18.4472L28.5175 18.4549L28.4994 18.4716L28.4839 18.4807L28.466 18.4976L28.4583 18.5143L28.4428 18.5221L28.4325 18.5311L28.4247 18.5388L28.4092 18.5479L28.399 18.5646L28.3836 18.5815L28.3656 18.5892L28.35 18.606L24.8845 15.1069L25.7781 14.21ZM38.2039 16.6789V4.50576C38.2039 4.13834 38.1266 3.78632 37.9924 3.46794C37.8584 3.14167 37.6599 2.84001 37.3994 2.58864L38.3044 1.68481C38.6706 2.05357 38.9644 2.48799 39.1656 2.98181C39.3668 3.45111 39.4751 3.97069 39.4751 4.50576V17.2746L39.4519 17.2655L39.4339 17.2578L39.4184 17.2411L39.4004 17.2319L39.3746 17.2243L39.3591 17.2152L39.3489 17.2074L39.3411 17.1984L39.3257 17.1907L39.2999 17.1817L39.2845 17.1739L39.2665 17.1571H39.251L39.2407 17.148L39.2252 17.1402L39.2073 17.1312L39.1841 17.1235L39.166 17.1067L39.1506 17.0977L39.1248 17.09L39.1068 17.0809L39.0914 17.0731L39.0657 17.0641L39.0502 17.0474L39.0321 17.0397L39.0064 17.0307L38.991 17.023L38.9729 17.0139L38.9496 17.0061L38.9395 16.9971L38.9317 16.9894L38.9163 16.9804L38.8904 16.9726L38.8725 16.9636L38.8571 16.9558L38.839 16.9467H38.8312L38.8158 16.939L38.7901 16.93L38.7721 16.9222L38.7566 16.9132L38.7308 16.8965L38.656 16.8629L38.6303 16.8552L38.6148 16.8462L38.5967 16.8385L38.5736 16.8295L38.5556 16.8217L38.5298 16.8126L38.5221 16.8048H38.5143L38.4886 16.7958L38.4731 16.788L38.455 16.779L38.4293 16.7712L38.4138 16.7622L38.388 16.7545L38.3725 16.7455L38.3468 16.7377L38.3288 16.7285L38.3132 16.7208H38.3055L38.2876 16.7118L38.2721 16.7041L38.2463 16.6951L38.2284 16.6873L38.2039 16.6789Z" fill="#26293A"/>
<path d="M38.3044 2.58869L23.3414 17.5415C22.8566 18.0351 22.2873 18.4039 21.6841 18.6643C21.0562 18.9235 20.3948 19.0486 19.7334 19.0486C19.0722 19.0486 18.4108 18.9235 17.7918 18.6643C17.1884 18.4039 16.6199 18.0351 16.1338 17.5415L0.720703 2.13611L1.17204 1.68486C1.54079 1.31611 1.98425 1.02349 2.47028 0.822386C2.93834 0.621284 3.45792 0.512939 3.99423 0.512939H35.4811C36.0174 0.512939 36.528 0.621284 37.005 0.822386C37.4922 1.02349 37.9358 1.31611 38.3045 1.68486L38.7558 2.13611L38.3044 2.58869ZM22.4459 16.6455L36.8966 2.18639C36.7806 2.11159 36.6543 2.04459 36.5202 1.99431C36.203 1.86021 35.8498 1.78542 35.481 1.78542H3.99413C3.62538 1.78542 3.27345 1.86021 2.95497 1.99431C2.82087 2.04459 2.6958 2.11159 2.57083 2.18639L17.0298 16.6455C17.3972 17.0143 17.8239 17.2992 18.2765 17.4835C18.7458 17.6847 19.2395 17.7762 19.7333 17.7762C20.2362 17.7762 20.7299 17.6847 21.1992 17.4835C21.6505 17.2992 22.0695 17.0143 22.4459 16.6455Z" fill="#26293A"/>
<path d="M30.048 26.1406C29.6974 26.1406 29.4111 25.8556 29.4111 25.5037C29.4214 25.1519 29.7051 24.8682 30.048 24.8682L38.1111 24.9184L36.4273 23.1508C36.1849 22.8994 36.1926 22.4984 36.4453 22.2547C36.7032 22.0123 37.1054 22.029 37.3477 22.2805L40.0526 25.1271C40.2873 25.3695 40.2873 25.7549 40.0526 26.0064L37.3477 28.853C37.1054 29.1045 36.7032 29.1122 36.4453 28.8776C36.1926 28.6352 36.1849 28.233 36.4273 27.9738L38.1265 26.1908L30.048 26.1406Z" fill="#26293A"/>
</svg>
